<svg width="32.000000" height="32.000000" viewBox="0 0 32 32" fill="none" xmlns="http://www.w3.org/2000/svg" xmlns:xlink="http://www.w3.org/1999/xlink">
	<desc>
			Created with Pixso.
	</desc>
	<defs>
		<clipPath id="clip15_21">
			<rect id="material-symbols:phone-enabled-outline" width="32.000000" height="32.000000" fill="white" fill-opacity="0"/>
		</clipPath>
	</defs>
	<rect id="material-symbols:phone-enabled-outline" width="32.000000" height="32.000000" fill="#FFFFFF" fill-opacity="0"/>
	<g clip-path="url(#clip15_21)">
		<path id="Vector" d="M5.4 28C5 28 4.66 27.86 4.4 27.6C4.13 27.33 4 27 4 26.6L4 21.2C4 20.88 4.09 20.61 4.29 20.38C4.5 20.14 4.75 20 5.06 19.93L9.66 19C9.97 18.95 10.29 18.98 10.61 19.08C10.93 19.18 11.2 19.33 11.4 19.53L14.53 22.66C16.22 21.64 17.77 20.43 19.18 19.03C20.59 17.63 21.76 16.13 22.7 14.53L19.46 11.26C19.26 11.06 19.13 10.83 19.08 10.58C19.02 10.32 19.02 10.04 19.06 9.73L19.93 5.06C19.97 4.75 20.12 4.5 20.36 4.3C20.61 4.1 20.88 4 21.2 4L26.6 4C27 4 27.33 4.13 27.6 4.39C27.86 4.66 28 5 28 5.39C28 8.26 27.36 11.06 26.08 13.78C24.8 16.5 23.11 18.91 21.01 21.01C18.91 23.11 16.5 24.8 13.78 26.08C11.06 27.36 8.26 28 5.4 28ZM23.96 12C24.34 11.13 24.63 10.25 24.83 9.36C25.03 8.47 25.18 7.57 25.3 6.66L22.33 6.66L21.76 9.8L23.96 12ZM12.03 23.93L9.79 21.7L6.66 22.33L6.66 25.26C7.57 25.2 8.48 25.05 9.38 24.83C10.28 24.61 11.16 24.31 12.03 23.93Z" fill="#332F6A" fill-opacity="1.000000" fill-rule="nonzero"/>
	</g>
</svg>
