<svg width="32.000000" height="32.000000" viewBox="0 0 32 32" fill="none" xmlns="http://www.w3.org/2000/svg" xmlns:xlink="http://www.w3.org/1999/xlink">
	<desc>
			Created with Pixso.
	</desc>
	<defs>
		<clipPath id="clip15_23">
			<rect id="la:telegram-plane" width="32.000000" height="32.000000" fill="white" fill-opacity="0"/>
		</clipPath>
	</defs>
	<rect id="la:telegram-plane" width="32.000000" height="32.000000" fill="#FFFFFF" fill-opacity="0"/>
	<g clip-path="url(#clip15_23)">
		<path id="Vector" d="M26.07 3.99C25.74 4.01 25.43 4.09 25.13 4.21L25.13 4.21C24.84 4.33 23.49 4.9 21.43 5.76L14.05 8.87C8.75 11.1 3.54 13.3 3.54 13.3L3.6 13.27C3.6 13.27 3.25 13.39 2.87 13.65C2.64 13.79 2.44 13.99 2.28 14.21C2.1 14.48 1.95 14.9 2.01 15.32C2.1 16.05 2.57 16.48 2.9 16.72C3.24 16.96 3.57 17.07 3.57 17.07L3.57 17.07L8.46 18.72C8.67 19.42 9.94 23.59 10.25 24.55C10.43 25.13 10.6 25.49 10.82 25.76C10.93 25.9 11.05 26.02 11.2 26.11C11.28 26.16 11.36 26.19 11.45 26.22L11.4 26.21C11.41 26.21 11.43 26.22 11.44 26.23C11.48 26.24 11.5 26.24 11.55 26.25C12.33 26.48 12.95 26 12.95 26L12.98 25.98L15.87 23.35L20.7 27.06L20.81 27.1C21.82 27.55 22.84 27.3 23.37 26.87C23.92 26.43 24.13 25.87 24.13 25.87L24.16 25.78L27.9 6.65C28 6.18 28.03 5.74 27.91 5.31C27.79 4.87 27.51 4.5 27.13 4.26C26.81 4.07 26.44 3.97 26.07 3.99ZM25.96 6.04C25.96 6.1 25.97 6.1 25.94 6.22L25.94 6.23L22.25 25.16C22.23 25.19 22.2 25.25 22.13 25.3C22.05 25.37 21.99 25.41 21.66 25.28L15.75 20.75L12.18 24L12.93 19.21L22.59 10.21C22.99 9.84 22.85 9.76 22.85 9.76C22.88 9.31 22.25 9.63 22.25 9.63L10.08 17.17L10.07 17.15L4.24 15.19L4.24 15.18L4.22 15.18C4.23 15.18 4.24 15.17 4.25 15.17L4.28 15.15L4.32 15.14C4.32 15.14 9.53 12.94 14.82 10.71C17.48 9.6 20.15 8.47 22.2 7.6C23.42 7.09 24.64 6.58 25.86 6.07C25.94 6.04 25.91 6.04 25.96 6.04Z" fill="#332F6A" fill-opacity="1.000000" fill-rule="nonzero"/>
	</g>
</svg>
