<svg width="32.000000" height="32.000000" viewBox="0 0 32 32" fill="none" xmlns="http://www.w3.org/2000/svg" xmlns:xlink="http://www.w3.org/1999/xlink">
	<defs>
		<clipPath id="clip15_18">
			<rect id="ic:baseline-access-time" width="32.000000" height="32.000000" fill="white" fill-opacity="0"/>
		</clipPath>
	</defs>
	<rect id="ic:baseline-access-time" width="32.000000" height="32.000000" fill="#FFFFFF" fill-opacity="0"/>
	<g clip-path="url(#clip15_18)">
		<path id="Vector" d="M15.98 2.66C8.62 2.66 2.66 8.64 2.66 16C2.66 23.36 8.62 29.33 15.98 29.33C23.36 29.33 29.33 23.36 29.33 16C29.33 8.64 23.36 2.66 15.98 2.66ZM16 26.66C10.1 26.66 5.33 21.89 5.33 16C5.33 10.1 10.1 5.33 16 5.33C21.89 5.33 26.66 10.1 26.66 16C26.66 21.89 21.89 26.66 16 26.66Z" fill="#332F6A" fill-opacity="1.000000" fill-rule="nonzero"/>
		<path id="Vector" d="M16.66 9.33L14.66 9.33L14.66 17.33L21.66 21.53L22.66 19.89L16.66 16.33L16.66 9.33Z" fill="#332F6A" fill-opacity="1.000000" fill-rule="nonzero"/>
	</g>
</svg>
