<svg width="32.000000" height="32.000000" viewBox="0 0 32 32" fill="none" xmlns="http://www.w3.org/2000/svg" xmlns:xlink="http://www.w3.org/1999/xlink">
	<desc>
			Created with Pixso.
	</desc>
	<defs>
		<clipPath id="clip15_25">
			<rect id="mingcute:whatsapp-line" width="32.000000" height="32.000000" fill="white" fill-opacity="0"/>
		</clipPath>
	</defs>
	<rect id="mingcute:whatsapp-line" width="32.000000" height="32.000000" fill="#FFFFFF" fill-opacity="0"/>
	<g clip-path="url(#clip15_25)">
		<path id="Vector" d="M16 2.66C23.36 2.66 29.33 8.63 29.33 16C29.33 23.36 23.36 29.33 16 29.33C13.73 29.33 11.49 28.75 9.51 27.65L9.1 27.41L5.06 28.6C4.84 28.67 4.61 28.67 4.39 28.62C4.16 28.57 3.95 28.47 3.78 28.31C3.61 28.16 3.48 27.97 3.41 27.75C3.33 27.53 3.31 27.3 3.35 27.07L3.39 26.93L4.58 22.89C3.32 20.81 2.66 18.42 2.66 16C2.66 8.63 8.63 2.66 16 2.66ZM16 5.33C14.09 5.33 12.21 5.84 10.57 6.81C8.92 7.78 7.57 9.18 6.65 10.85C5.73 12.53 5.27 14.42 5.33 16.32C5.39 18.23 5.96 20.09 6.98 21.7C7.25 22.12 7.36 22.63 7.27 23.14L7.22 23.36L6.63 25.36L8.63 24.77C9.21 24.6 9.81 24.7 10.29 25.01C11.68 25.89 13.27 26.44 14.91 26.61C16.56 26.77 18.22 26.56 19.77 25.97C21.32 25.38 22.71 24.45 23.83 23.23C24.95 22.02 25.78 20.56 26.24 18.97C26.7 17.38 26.78 15.7 26.48 14.08C26.19 12.45 25.52 10.91 24.52 9.59C23.53 8.27 22.24 7.19 20.76 6.45C19.28 5.71 17.65 5.33 16 5.33ZM12.13 9.57C12.28 9.51 12.44 9.49 12.6 9.5C12.76 9.52 12.91 9.58 13.04 9.67C13.72 10.16 14.25 10.82 14.71 11.47L15.14 12.1L15.35 12.4C15.46 12.57 15.52 12.78 15.51 12.98C15.5 13.19 15.42 13.39 15.29 13.55L15.19 13.65L13.95 14.57C13.89 14.61 13.85 14.67 13.84 14.74C13.82 14.81 13.83 14.89 13.86 14.95C14.14 15.46 14.64 16.22 15.21 16.78C15.78 17.35 16.57 17.88 17.11 18.19C17.23 18.26 17.37 18.24 17.46 18.15L17.51 18.09L18.31 16.87C18.46 16.67 18.68 16.54 18.92 16.5C19.16 16.46 19.41 16.52 19.61 16.66L20.34 17.16C21.06 17.68 21.75 18.23 22.3 18.93C22.4 19.06 22.46 19.22 22.48 19.38C22.5 19.55 22.48 19.71 22.42 19.87C21.89 21.1 20.55 22.15 19.16 22.1L18.95 22.08L18.69 22.06C18.65 22.05 18.6 22.05 18.55 22.04L18.23 21.99C17 21.76 15.03 21.06 12.98 19.01C10.93 16.97 10.24 14.99 10 13.76L9.95 13.44L9.92 13.16L9.9 12.93C9.9 12.9 9.9 12.86 9.89 12.83C9.84 11.44 10.9 10.1 12.13 9.57Z" fill="#332F6A" fill-opacity="1.000000" fill-rule="nonzero"/>
	</g>
</svg>
